<svg xmlns="http://www.w3.org/2000/svg" xmlns:xlink="http://www.w3.org/1999/xlink" width="400" height="77.25" viewBox="0 0 400 77.25">
  <defs>
    <style>
      .cls-1 {
        isolation: isolate;
      }

      .cls-2 {
        fill: url(#linear-gradient);
      }

      .cls-3 {
        opacity: 0.8;
        fill: url(#radial-gradient);
      }

      .cls-10, .cls-3, .cls-6, .cls-8 {
        mix-blend-mode: multiply;
      }

      .cls-4 {
        fill: #303056;
      }

      .cls-5 {
        fill: url(#linear-gradient-2);
      }

      .cls-6, .cls-8 {
        opacity: 0.5;
      }

      .cls-6 {
        fill: url(#radial-gradient-2);
      }

      .cls-7 {
        fill: url(#linear-gradient-3);
      }

      .cls-8 {
        fill: url(#radial-gradient-3);
      }

      .cls-9 {
        fill: url(#linear-gradient-4);
      }

      .cls-10 {
        opacity: 0.3;
        fill: url(#radial-gradient-4);
      }

      .cls-11 {
        fill: url(#linear-gradient-5);
      }
    </style>
    <linearGradient id="linear-gradient" x1="-104.91" y1="-22.65" x2="-12.27" y2="-22.65" gradientTransform="matrix(0.5, -0.69, 0.81, 0.58, 87.07, 10.8)" gradientUnits="userSpaceOnUse">
      <stop offset="0" stop-color="#5d00df"/>
      <stop offset="1" stop-color="#a600e2"/>
    </linearGradient>
    <radialGradient id="radial-gradient" cx="-58.59" cy="-22.65" r="42.16" gradientTransform="matrix(0.5, -0.69, 0.81, 0.58, 87.07, 10.8)" gradientUnits="userSpaceOnUse">
      <stop offset="0" stop-color="#2400bd"/>
      <stop offset="0.4" stop-color="#2500bd" stop-opacity="0.99"/>
      <stop offset="0.54" stop-color="#2a00bf" stop-opacity="0.95"/>
      <stop offset="0.64" stop-color="#3200c1" stop-opacity="0.89"/>
      <stop offset="0.72" stop-color="#3e00c4" stop-opacity="0.8"/>
      <stop offset="0.79" stop-color="#4d00c9" stop-opacity="0.69"/>
      <stop offset="0.85" stop-color="#6000ce" stop-opacity="0.54"/>
      <stop offset="0.91" stop-color="#7600d4" stop-opacity="0.37"/>
      <stop offset="0.96" stop-color="#8f00db" stop-opacity="0.18"/>
      <stop offset="1" stop-color="#a600e2" stop-opacity="0"/>
    </radialGradient>
    <linearGradient id="linear-gradient-2" x1="-82.32" y1="2.29" x2="-33.45" y2="-46.59" xlink:href="#linear-gradient"/>
    <radialGradient id="radial-gradient-2" cx="-58.25" cy="-22.99" r="34.82" xlink:href="#radial-gradient"/>
    <linearGradient id="linear-gradient-3" x1="-88.2" y1="-23.32" x2="-27.75" y2="-23.32" xlink:href="#linear-gradient"/>
    <radialGradient id="radial-gradient-3" cx="-57.98" cy="-23.32" r="27.47" xlink:href="#radial-gradient"/>
    <linearGradient id="linear-gradient-4" x1="-71.91" y1="-9.29" x2="-43.8" y2="-37.39" xlink:href="#linear-gradient"/>
    <radialGradient id="radial-gradient-4" cx="-57.77" cy="-23.7" r="20.12" xlink:href="#radial-gradient"/>
    <linearGradient id="linear-gradient-5" x1="-71.75" y1="-24.13" x2="-43.5" y2="-24.13" xlink:href="#linear-gradient"/>
  </defs>
  <title>testAsset 1</title>
  <g class="cls-1">
    <g id="Layer_2" data-name="Layer 2">
      <g id="Layer_1-2" data-name="Layer 1">
        <g>
          <path class="cls-2" d="M6.05,20.49A34.81,34.81,0,0,0,.26,44.32c1.16,9.36,7.9,20.47,15.6,25.85A39.15,39.15,0,0,0,51.57,74.9c8.71-3.27,17-12.06,21.78-19.62,3.78-6,7.59-12.58,7.68-20.3S77,18,69,10.91C62.38,5.12,51.25,1,42.78.16,27.58-1.37,14.26,8.3,6.05,20.49Z"/>
          <path class="cls-3" d="M6.05,20.49A34.81,34.81,0,0,0,.26,44.32c1.16,9.36,7.9,20.47,15.6,25.85A39.15,39.15,0,0,0,51.57,74.9c8.71-3.27,17-12.06,21.78-19.62,3.78-6,7.59-12.58,7.68-20.3S77,18,69,10.91C62.38,5.12,51.25,1,42.78.16,27.58-1.37,14.26,8.3,6.05,20.49Z"/>
          <g>
            <path class="cls-4" d="M103.52,23.73h9.73v5.18a11.58,11.58,0,0,1,4.31-4.78,10.57,10.57,0,0,1,5.74-1.52,11.9,11.9,0,0,1,4.15.8l-1.27,9.09a7.32,7.32,0,0,0-4.55-1.27A7.91,7.91,0,0,0,115.17,34c-1.84,2.31-1.92,5.26-1.92,7.66V58.27h-9.73Z"/>
            <path class="cls-4" d="M164.93,48.62c-1,2.55-4.94,10.77-17,10.77-5.59,0-9.81-1.6-13.24-4.87-3.83-3.59-5.43-8.06-5.43-13.48,0-6.86,2.79-11.09,5.27-13.56,4.06-4,8.85-4.87,13-4.87,7,0,11.09,2.79,13.48,5.66,3.67,4.39,4.15,9.82,4.15,13.57v.79H139.32A10.19,10.19,0,0,0,141,48.46a8.24,8.24,0,0,0,6.94,3.27A8.92,8.92,0,0,0,156,47.18ZM156,36.41a8.29,8.29,0,0,0-16.36,0Z"/>
            <path class="cls-4" d="M197.56,34.26a11.2,11.2,0,0,0-8-3c-6.46,0-9.73,4.7-9.73,9.73,0,5.66,4.23,9.81,10.05,9.81a11.29,11.29,0,0,0,7.66-3v9.49a19.72,19.72,0,0,1-8.94,2.16,19.51,19.51,0,0,1-13.32-5,17.74,17.74,0,0,1-5.5-13.24,17.81,17.81,0,0,1,18.43-18.51,20.67,20.67,0,0,1,9.33,2.07Z"/>
            <path class="cls-4" d="M213.9,23.73V43.27c0,1.84.16,4.31,2.07,6.07a7.86,7.86,0,0,0,9.89,0c1.92-1.76,2.08-4.23,2.08-6.07V23.73h9.73V44.87c0,3.11-.4,7.26-4.23,10.61-3.19,2.79-8.29,3.91-12.52,3.91s-9.34-1.12-12.53-3.91c-3.83-3.35-4.23-7.5-4.23-10.61V23.73Z"/>
            <path class="cls-4" d="M245.7,23.73h9.73v5.18a11.58,11.58,0,0,1,4.31-4.78,10.54,10.54,0,0,1,5.74-1.52,12,12,0,0,1,4.15.8l-1.28,9.09a7.27,7.27,0,0,0-4.54-1.27A7.94,7.94,0,0,0,257.34,34c-1.83,2.31-1.91,5.26-1.91,7.66V58.27H245.7Z"/>
            <path class="cls-4" d="M273.59,23.73h9.74v5.18a11.58,11.58,0,0,1,4.3-4.78,10.6,10.6,0,0,1,5.75-1.52,12,12,0,0,1,4.15.8l-1.28,9.09a7.3,7.3,0,0,0-4.55-1.27A7.94,7.94,0,0,0,285.24,34c-1.83,2.31-1.91,5.26-1.91,7.66V58.27h-9.74Z"/>
            <path class="cls-4" d="M335,48.62c-1,2.55-4.95,10.77-17,10.77-5.58,0-9.81-1.6-13.24-4.87-3.83-3.59-5.43-8.06-5.43-13.48,0-6.86,2.8-11.09,5.27-13.56,4.07-4,8.86-4.87,13-4.87,7,0,11.09,2.79,13.49,5.66,3.67,4.39,4.15,9.82,4.15,13.57v.79H309.4a10.26,10.26,0,0,0,1.67,5.83A8.24,8.24,0,0,0,318,51.73a8.91,8.91,0,0,0,8.06-4.55Zm-8.94-12.21a8.28,8.28,0,0,0-16.35,0Z"/>
            <path class="cls-4" d="M341.73,23.73h9.73v4.46a12.7,12.7,0,0,1,10.69-5.58c3,0,7.5.88,10.21,4.23,2.4,2.95,2.72,6.38,2.72,9.73v21.7h-9.74V39.44c0-1.91-.08-4.94-1.83-6.78A6.25,6.25,0,0,0,359,30.91a6.61,6.61,0,0,0-6,3,11.84,11.84,0,0,0-1.52,6.7V58.27h-9.73Z"/>
            <path class="cls-4" d="M393.3,32V58.27h-9.74V32h-3.83V23.73h3.83V11.92h9.74V23.73H400V32Z"/>
          </g>
          <path class="cls-5" d="M11.5,23.66A28.44,28.44,0,0,0,6.89,43c1,7.47,5.75,15.73,12.77,21,7.46,5.64,20.67,7.68,29.48,4.18,8.17-3.25,13.64-9.52,18-16,3.34-5,6.23-10.44,6.33-16.85.11-6.6-3.11-14.39-9.81-20.18a38.67,38.67,0,0,0-21.76-8.7C28.9,5.48,18.19,13.23,11.5,23.66Z"/>
          <path class="cls-6" d="M11.5,23.66A28.44,28.44,0,0,0,6.89,43c1,7.47,5.75,15.73,12.77,21,7.46,5.64,20.67,7.68,29.48,4.18,8.17-3.25,13.64-9.52,18-16,3.34-5,6.23-10.44,6.33-16.85.11-6.6-3.11-14.39-9.81-20.18a38.67,38.67,0,0,0-21.76-8.7C28.9,5.48,18.19,13.23,11.5,23.66Z"/>
          <path class="cls-7" d="M17,26.78a22.15,22.15,0,0,0-3.44,15,25.23,25.23,0,0,0,33.2,19.79c6.5-2.44,10.76-7.35,14.16-12.48,2.63-4,4.87-8.25,5-13.33a21.39,21.39,0,0,0-7.59-16.24A29.34,29.34,0,0,0,41,12.77C30.67,12.22,22.17,18.41,17,26.78Z"/>
          <path class="cls-8" d="M17,26.78a22.15,22.15,0,0,0-3.44,15,25.23,25.23,0,0,0,33.2,19.79c6.5-2.44,10.76-7.35,14.16-12.48,2.63-4,4.87-8.25,5-13.33a21.39,21.39,0,0,0-7.59-16.24A29.34,29.34,0,0,0,41,12.77C30.67,12.22,22.17,18.41,17,26.78Z"/>
          <path class="cls-9" d="M22.4,29.85a15.74,15.74,0,0,0-2.27,10.64,18.48,18.48,0,0,0,7.12,11.56,18.79,18.79,0,0,0,17,2.72c4.72-1.71,7.87-5.2,10.36-8.93,1.92-2.88,3.5-6,3.63-9.74a15.7,15.7,0,0,0-5.36-12.23A20.15,20.15,0,0,0,40.06,19.1C31.32,19,26,23.85,22.4,29.85Z"/>
          <path class="cls-10" d="M22.4,29.85a15.74,15.74,0,0,0-2.27,10.64,18.48,18.48,0,0,0,7.12,11.56,18.79,18.79,0,0,0,17,2.72c4.72-1.71,7.87-5.2,10.36-8.93,1.92-2.88,3.5-6,3.63-9.74a15.7,15.7,0,0,0-5.36-12.23A20.15,20.15,0,0,0,40.06,19.1C31.32,19,26,23.85,22.4,29.85Z"/>
          <path class="cls-11" d="M27.86,32.88a9.91,9.91,0,0,0-1.1,6.38,11.31,11.31,0,0,0,4.29,6.88A12,12,0,0,0,41.85,48a13.29,13.29,0,0,0,6.55-5.39,12,12,0,0,0,2.29-6.08,10.17,10.17,0,0,0-3.14-8.16,11.9,11.9,0,0,0-8.4-2.88C33.67,25.62,30,28.87,27.86,32.88Z"/>
        </g>
      </g>
    </g>
  </g>
</svg>
